<?xml version="1.0" encoding="UTF-8" standalone="no"?><!DOCTYPE svg PUBLIC "-//W3C//DTD SVG 1.1//EN" "http://www.w3.org/Graphics/SVG/1.1/DTD/svg11.dtd"><svg width="100%" height="100%" viewBox="0 0 10400 1896" version="1.1" xmlns="http://www.w3.org/2000/svg" xmlns:xlink="http://www.w3.org/1999/xlink" xml:space="preserve" xmlns:serif="http://www.serif.com/" style="fill-rule:evenodd;clip-rule:evenodd;stroke-linejoin:round;stroke-miterlimit:2;"><rect id="Prancheta1" x="0" y="0" width="10396" height="1895.52" style="fill:none;"/><g><path d="M881.033,699.408c66.409,-6.762 150.134,14.93 202.171,57.192c9.854,94.704 2.708,190.4 -21.108,282.592c-48.308,194.716 -161.296,380.212 -288.346,533.546c-41.925,50.587 -87.617,103.108 -144.467,137.158c-72.225,43.25 -149.454,53.733 -230.754,33.416c-39.933,-10.57 -77,-29.925 -108.504,-56.645c-62.683,-53.188 -101.596,-125.988 -108.296,-208.209c-18.483,-226.841 166.284,-289.65 291.55,-433.754c28.104,-32.608 54.342,-66.783 78.575,-102.362c28.225,-41.525 54.163,-84.246 86.888,-122.525c63.475,-74.234 145.541,-112.955 242.291,-120.409Z" style="fill-rule:nonzero;"/><path d="M1124.27,788.721c3.725,1.021 6.396,2.696 9.412,5.083c44.838,35.509 84.038,108.921 116.746,157.667c21.779,32.446 45.792,64.883 71.713,94.137c29.191,32.934 62.1,63.429 95.662,91.9c49.704,42.175 104.804,82.859 143.063,136.246c29.429,41.063 47.191,90.513 53.216,140.508c10.58,81.075 -11.787,163.013 -62.091,227.463c-42.742,54.071 -111.192,99.504 -180.667,107.721c-0.392,0.192 -0.763,0.437 -1.183,0.575c-13.342,4.329 -32.634,4.521 -46.679,4.421c-87.517,-0.613 -135.426,-39.455 -210.446,-73.967c-26.542,-12.029 -54.071,-21.725 -82.288,-28.979c-26.546,-6.979 -115.858,-7.4 -129.208,-16.634c-4.138,-2.858 -8.55,-7.937 -8.359,-13.375c0.217,-6.308 5.342,-15.604 8.275,-21.016c10.925,-20.179 24.559,-39.354 36.48,-59.013c23.22,-38.312 45.587,-77.937 65.354,-118.154c90.942,-184.983 154.483,-427.958 121,-634.583Z" style="fill-rule:nonzero;"/><path d="M1148.48,67.967c45.229,-3.192 87.908,4.621 124.946,31.971c54.408,40.17 82.358,107.091 91.971,172.341c13.154,89.221 -5.067,187.721 -59.609,260.838c-36.446,48.846 -83.354,82.612 -144.195,91.608c-43.617,4.454 -86.43,-4.571 -122.009,-30.846c-54.187,-40.021 -85.729,-108.162 -95.408,-173.4c-13.5,-90.908 10.487,-191.054 65.462,-264.979c34.421,-46.287 81.255,-79.021 138.842,-87.533Z" style="fill-rule:nonzero;"/><path d="M602.158,67.742c43.1,-5.1 86.634,4.708 123.38,27.795c63.629,40.13 102.683,115.192 118.85,186.742c19.245,85.204 11.699,179.054 -35.855,254.096c-30.075,47.462 -69.362,74.604 -123.995,86.842c-45.296,8.52 -94.409,-3.329 -132.646,-28.446c-63.467,-41.683 -102.446,-116.65 -117.109,-189.521c-16.75,-83.25 -8.046,-180.321 39.971,-252.346c30.921,-46.383 73.071,-74.133 127.404,-85.162Z" style="fill-rule:nonzero;"/><path d="M212.917,469.246c48.521,-3.538 101.304,20.716 138.304,50.362c69.967,56.063 112.854,148.292 122.529,236.388c7.254,66.133 -4.429,139.175 -47.071,192.146c-33.5,41.625 -76.058,60.812 -128.433,66.479c-54.163,-0.392 -104.267,-21.825 -145.742,-55.825c-66.437,-54.471 -108.212,-141.683 -116.508,-226.542c-6.879,-70.308 4.667,-145.458 50.862,-201.329c32.963,-39.871 75.696,-56.825 126.059,-61.679Z" style="fill-rule:nonzero;"/><path d="M1570,469.45c0.375,-0.012 0.746,-0.037 1.121,-0.046c46.471,-1.166 90.971,13.363 125.308,45.254c45.625,42.363 64.788,104.455 66.804,165.296c3.088,93 -27.895,184.442 -92.175,252.713c-42.925,45.6 -100.466,78.791 -164.095,80.804c-36.025,2.325 -77.867,-13.021 -106.071,-34.929c-44.1,-34.263 -70.313,-92.567 -77.084,-147.029c-11.025,-88.746 18.721,-192.509 73.746,-262.759c44.275,-56.516 101.096,-90.587 172.446,-99.304Z" style="fill-rule:nonzero;"/></g><g><path d="M2313.03,1753.53c67.213,0 120.025,-54.458 120.025,-120.125l0,-233.842l166.679,0c238.663,0 385.896,-124.808 385.896,-334.654c0,-203.425 -147.233,-326.637 -377.883,-326.637l-291.517,-0c-78.417,-0 -123.225,44.808 -123.225,123.212l0,771.921c0,65.667 54.413,120.125 120.025,120.125Zm120.025,-808.842l163.475,0c100.971,0 149.05,38.471 149.05,123.429c0,84.955 -48.079,125.03 -149.05,125.03l-163.475,-0l0,-248.459Z" style="fill-rule:nonzero;"/><path d="M3440.63,1751.92c43.279,0 136.188,-3.2 235.4,-46.4c28.804,-12.796 49.608,-43.196 49.608,-76.792c0,-54.396 -51.208,-94.491 -104.016,-80.054c-57.609,17.642 -115.275,24.059 -160.154,24.059c-115.4,-0 -198.746,-59.346 -205.159,-144.351l414.921,0.001c60.809,-0 96.013,-33.588 96.013,-92.767c-3.2,-197.1 -145.621,-344.288 -369.888,-344.288c-222.658,0 -371.483,175.984 -371.483,384.271c-0,229.129 179.229,376.321 414.758,376.321Zm-184.321,-465.887c12.825,-68.988 72.13,-117.121 145.855,-117.121c76.937,-0 133.033,48.133 142.645,117.121l-288.5,-0Z" style="fill-rule:nonzero;"/><path d="M4318.21,1651.02c0,-52.854 -41.646,-96.1 -91.296,-99.3c-20.82,1.6 -38.441,-0 -51.254,-11.213c-17.616,-12.812 -27.229,-36.837 -27.229,-76.879l0,-257.871l44.846,0c52.858,0 96.1,-43.2 96.1,-96c0,-52.8 -43.242,-96 -96.1,-96l-44.846,0l0,-91.296c0,-62.462 -51.208,-115.316 -113.617,-115.316c-64.012,-0 -115.22,52.854 -115.22,115.316l-0,91.296l-20.821,0c-49.654,0 -91.296,44.8 -91.296,96c-0,49.6 40.042,96 89.692,96l22.425,0l-0,281.896c-0,115.317 28.804,188.996 86.416,230.638c52.809,35.237 126.421,43.245 225.709,30.433c48.05,-6.409 86.491,-48.05 86.491,-97.704Z" style="fill-rule:nonzero;"/><path d="M4848.46,1753.53c67.213,0 120.025,-54.458 120.025,-120.125l0,-233.842l166.68,0c238.662,0 385.895,-124.808 385.895,-334.654c0,-203.425 -147.233,-326.637 -377.883,-326.637l-291.517,-0c-78.416,-0 -123.225,44.808 -123.225,123.212l0,771.921c0,65.667 54.413,120.125 120.025,120.125Zm120.025,-808.842l163.475,0c100.971,0 149.05,38.471 149.05,123.429c0,84.955 -48.079,125.03 -149.05,125.03l-163.475,-0l0,-248.459Z" style="fill-rule:nonzero;"/><path d="M5806.17,1753.53c89.771,0 160.304,-36.792 208.396,-86.383l-0,4.8c16.004,49.587 62.408,81.583 113.616,81.583c68.813,0 113.621,-55.987 113.621,-126.375l0,-334.717c0,-200.304 -115.221,-301.1 -347.467,-301.1c-80.15,0 -158.621,14.4 -227.429,38.396c-35.208,11.2 -62.412,43.2 -62.412,81.6c-0,55.996 56.008,96.084 107.216,83.246c65.613,-14.442 132.929,-22.45 185.829,-11.233c75.346,8.02 117.025,46.533 117.025,109.091l0.001,41.584c-41.68,-28.788 -110.613,-47.979 -185.955,-47.979c-160.104,-0 -275.325,86.366 -275.325,233.758c0,145.746 110.417,233.729 252.884,233.729Zm94.579,-161.567c-59.313,0 -118.625,-27.262 -118.625,-84.991c-0,-57.73 59.312,-83.384 118.625,-83.384c56.1,0 123.425,25.654 123.425,84.988c-0,56.125 -65.721,83.387 -123.429,83.387l0.004,0Z" style="fill-rule:nonzero;"/><path d="M6472.54,1753.53c62.412,0 113.621,-52.842 113.621,-115.292l-0,-236.983c-0,-128.1 67.27,-180.942 168.175,-193.75c51.254,-6.408 91.295,-46.438 91.295,-97.679c0,-54.429 -46.45,-97.667 -100.908,-96.067c-67.267,3.209 -118.521,38.433 -158.562,102.483l-0,-19.216c-0,-56.054 -56.009,-105.688 -113.621,-105.688c-64.009,0 -115.217,52.838 -115.217,116.888l0,530.012c0,62.45 51.208,115.292 115.217,115.292Z" style="fill-rule:nonzero;"/><path d="M7125.96,1753.53c89.771,0 160.305,-36.792 208.4,-86.383l0,4.8c16,49.587 62.409,81.583 113.617,81.583c68.808,0 113.617,-55.987 113.617,-126.375l-0,-334.717c-0,-200.304 -115.217,-301.1 -347.467,-301.1c-80.15,0 -158.617,14.4 -227.429,38.396c-35.204,11.2 -62.413,43.2 -62.413,81.6c0,55.996 56.013,96.084 107.221,83.246c65.613,-14.442 132.929,-22.45 185.829,-11.233c75.342,8.02 117.025,46.533 117.025,109.091l0,41.584c-41.683,-28.788 -110.612,-47.979 -185.954,-47.979c-160.108,-0 -275.329,86.366 -275.329,233.758c0,145.746 110.421,233.729 252.883,233.729Zm94.58,-161.567c-59.313,0 -118.626,-27.262 -118.626,-84.991c0.001,-57.73 59.313,-83.384 118.626,-83.384c56.104,0 123.429,25.654 123.429,84.988c-0,56.125 -65.725,83.387 -123.429,83.387Z" style="fill-rule:nonzero;"/><path d="M8332.08,1753.53c64.013,0 113.621,-52.8 113.621,-115.2l0,-807.158c0,-62.467 -49.608,-115.321 -113.621,-115.321c-64.008,-0 -113.616,52.854 -113.616,115.321l-0,272.154c-57.692,-68.796 -137.821,-115.192 -241.992,-115.192c-174.579,0 -333.004,142.392 -333.004,377.892c-0,229.104 148.825,387.504 333.004,387.504c104.171,0 187.504,-46.4 241.992,-110.4l-0,24c14.404,51.2 60.812,86.4 113.616,86.4Zm-278.683,-192c-113.783,0 -181.092,-81.729 -181.092,-195.504c0,-112.175 68.913,-195.504 181.092,-195.504c68.913,-0 134.617,40.062 165.067,107.366l-0,174.671c-32.05,72.113 -96.154,108.971 -165.067,108.971Z" style="fill-rule:nonzero;"/><path d="M8692.46,939.879c75.221,0 126.434,-46.408 126.434,-110.416c-0,-64.009 -51.213,-113.617 -126.434,-113.617c-73.616,-0 -126.429,48.008 -126.429,113.617c0,64.008 52.813,110.416 126.429,110.416Zm0,813.646c64.013,0 115.221,-52.842 115.221,-115.292l0,-531.612c0,-62.45 -51.208,-115.288 -113.617,-115.288c-64.012,0 -115.22,52.838 -115.22,115.288l-0,531.612c-0,62.45 51.208,115.292 113.62,115.292l-0.004,0Z" style="fill-rule:nonzero;"/><path d="M9213,1753.53c184.204,0 301.013,-92.787 301.013,-238.479c-0.001,-100.954 -54.405,-176.267 -171.209,-211.521l-112.171,-33.65c-105.812,-30.446 -120.241,-44.867 -120.241,-65.7c-0,-35.254 36.875,-46.463 92.987,-41.667c35.271,3.209 88.179,12.825 163.425,41.667c52.804,20.833 116.804,-20.829 116.804,-81.658c0,-38.396 -24,-67.196 -59.2,-81.592c-68.804,-31.996 -156.9,-51.196 -221.029,-51.196c-176.191,0 -292.996,91.192 -292.996,230.471c0,104.158 51.2,171.458 179.205,211.521l113.791,36.854c91.388,28.846 109.021,41.663 109.021,64.096c0,38.458 -40.079,52.875 -110.625,48.075c-46.492,-3.204 -96.183,-12.821 -163.388,-43.267c-51.199,-19.229 -120.004,16.025 -120.004,81.663c0,38.395 25.6,70.391 57.6,81.587c72.005,30.4 158.459,52.796 237.017,52.796Z" style="fill-rule:nonzero;"/><path d="M9991.46,1751.92c43.275,0 136.184,-3.2 235.396,-46.4c28.804,-12.796 49.608,-43.196 49.608,-76.792c0,-54.396 -51.208,-94.491 -104.016,-80.054c-57.604,17.642 -115.275,24.059 -160.15,24.059c-115.404,-0 -198.746,-59.346 -205.159,-144.351l414.917,0.001c60.808,-0 96.013,-33.588 96.013,-92.767c-3.2,-197.1 -145.621,-344.288 -369.884,-344.288c-222.662,0 -371.487,175.984 -371.487,384.271c-0,229.129 179.233,376.321 414.762,376.321Zm-184.321,-465.887c12.821,-68.988 72.125,-117.121 145.855,-117.121c76.933,-0 133.029,48.133 142.645,117.121l-288.5,-0Z" style="fill-rule:nonzero;"/></g></svg>