<?xml version="1.0" encoding="UTF-8" standalone="no"?><!DOCTYPE svg PUBLIC "-//W3C//DTD SVG 1.1//EN" "http://www.w3.org/Graphics/SVG/1.1/DTD/svg11.dtd"><svg width="100%" height="100%" viewBox="0 0 5404 5276" version="1.1" xmlns="http://www.w3.org/2000/svg" xmlns:xlink="http://www.w3.org/1999/xlink" xml:space="preserve" xmlns:serif="http://www.serif.com/" style="fill-rule:evenodd;clip-rule:evenodd;stroke-linejoin:round;stroke-miterlimit:2;"><path d="M2646.47,1978.07c207.528,-21.131 469.169,46.656 631.785,178.725c30.793,295.95 8.462,595 -65.963,883.1c-150.962,608.488 -504.05,1188.16 -901.081,1667.33c-131.016,158.085 -273.803,322.213 -451.459,428.619c-225.704,135.156 -467.044,167.916 -721.107,104.425c-124.79,-33.031 -240.625,-93.515 -339.075,-177.015c-195.884,-166.213 -317.487,-393.713 -338.425,-650.654c-57.759,-708.878 519.638,-905.156 911.094,-1355.48c87.825,-101.9 169.819,-208.697 245.547,-319.881c88.203,-129.766 169.259,-263.269 271.525,-382.891c198.359,-231.981 454.816,-352.984 757.159,-376.278Z" style="fill-rule:nonzero;"/><path d="M3406.58,2257.17c11.641,3.191 19.987,8.425 29.412,15.885c140.119,110.965 262.619,340.378 364.832,492.709c68.059,101.394 143.1,202.759 224.103,294.178c91.222,102.919 194.062,198.216 298.944,287.188c155.325,131.797 327.512,258.934 447.071,425.768c91.966,128.322 147.472,282.854 166.3,439.088c33.063,253.359 -36.834,509.416 -194.034,710.822c-133.569,168.972 -347.475,310.95 -564.584,336.628c-1.225,0.6 -2.385,1.366 -3.697,1.797c-41.694,13.528 -101.981,14.128 -145.872,13.815c-273.491,-1.915 -423.206,-123.296 -657.644,-231.146c-82.944,-37.591 -168.972,-67.891 -257.15,-90.56c-82.956,-21.809 -362.056,-23.125 -403.775,-51.981c-12.931,-8.931 -26.719,-24.803 -26.122,-41.797c0.678,-19.712 16.694,-48.762 25.86,-65.675c34.14,-63.059 76.747,-122.981 114,-184.416c72.562,-119.725 142.459,-243.553 204.231,-369.231c284.194,-578.072 482.759,-1337.37 378.125,-1983.07Z" style="fill-rule:nonzero;"/><path d="M3482.24,4.818c141.341,-9.975 274.713,14.441 390.456,99.909c170.025,125.532 257.369,334.66 287.41,538.566c41.106,278.816 -15.835,586.628 -186.278,815.119c-113.894,152.644 -260.482,258.162 -450.61,286.275c-136.303,13.919 -270.093,-14.285 -381.278,-96.394c-169.334,-125.066 -267.903,-338.006 -298.15,-541.875c-42.187,-284.087 32.772,-597.044 204.569,-828.059c107.566,-144.647 253.922,-246.941 433.881,-273.541Z" style="fill-rule:nonzero;"/><path d="M1774.98,4.115c134.687,-15.938 270.731,14.712 385.562,86.859c198.841,125.407 320.885,359.975 371.407,583.569c60.14,266.263 36.559,559.544 -112.047,794.05c-93.985,148.319 -216.756,233.138 -387.485,271.381c-141.55,26.625 -295.028,-10.403 -414.518,-88.893c-198.335,-130.26 -320.144,-364.532 -365.966,-592.254c-52.344,-260.156 -25.144,-563.503 124.909,-788.581c96.629,-144.947 228.347,-231.665 398.138,-266.131Z" style="fill-rule:nonzero;"/><path d="M558.603,1258.82c151.628,-11.056 316.575,64.737 432.2,157.381c218.647,175.197 352.669,463.413 382.903,738.713c22.669,206.665 -13.841,434.922 -147.097,600.456c-104.687,130.078 -237.681,190.037 -401.353,207.747c-169.259,-1.225 -325.834,-68.203 -455.444,-174.453c-207.615,-170.222 -338.162,-442.76 -364.087,-707.944c-21.497,-219.713 14.584,-454.556 158.943,-629.153c103.01,-124.597 236.55,-177.578 393.935,-192.747Z" style="fill-rule:nonzero;"/><path d="M4799.49,1259.45c1.172,-0.037 2.331,-0.115 3.503,-0.143c145.222,-3.644 284.285,41.759 391.588,141.418c142.578,132.385 202.462,326.422 208.762,516.55c9.65,290.625 -87.172,576.382 -288.047,789.729c-134.14,142.5 -313.956,246.221 -512.796,252.512c-112.579,7.266 -243.335,-40.691 -331.472,-109.153c-137.813,-107.072 -219.728,-289.272 -240.888,-459.466c-34.453,-277.331 58.503,-601.59 230.456,-821.122c138.36,-176.612 315.925,-283.084 538.894,-310.325Z" style="fill-rule:nonzero;"/></svg>